<?xml version="1.0" encoding="UTF-8"?><svg xmlns="http://www.w3.org/2000/svg" viewBox="0 0 531.16 498.53"><defs><style>.d{fill:#1d120b;}</style></defs><g id="a"><path class="d" d="M288.69,22.2c2.23,0,38.69,.03,40.87,.08,72.11,1.73,153.8,32.15,185.46,96.8h16.15V0h-245.23C112.35,0,0,100.92,0,252.29s106.3,246.24,262.38,246.24h115.39c30.61,0,44.74-21.63,41.93-47.78-.58-5.44-1.98-10.75-3.93-15.86l-77.25-202.78c-6.73-22.87,2.69-39.69,26.91-39.69h56.73c22.87,0,30.95,13.46,30.95,32.29v195.78c0,43.1,34.94,78.04,78.04,78.04h0V213.94c0-28.93-14.13-42.39-44.4-42.39h-187.92c-37,0-51.8,26.24-42.39,59.2l77.78,203.51c1.22,3.2,2.17,6.52,2.63,9.91,2.42,18.07-7.15,33.49-31.07,33.49h-41.39c-94.86,0-159.45-74.68-159.45-229.42S168.86,22.2,288.69,22.2Z"/></g><g id="b"/><g id="c"/></svg>