<?xml version="1.0" encoding="UTF-8"?><svg xmlns="http://www.w3.org/2000/svg" viewBox="0 0 1440.01 504.58"><defs><style>.d{fill:#170b01;}</style></defs><g id="a"><g><path class="d" d="M846.02,130.52c29.6,0,53.82-24.22,53.82-53.82s-24.22-53.15-53.82-53.15-53.15,24.22-53.15,53.15,24.22,53.82,53.15,53.82Z"/><path class="d" d="M1045.84,433.27V0h-123.12V16.15c31.62,1.35,45.08,18.16,45.08,49.11V442.32c0,21.79-17.71,39.78-39.5,39.38-24.8-.46-37.2-15.85-37.2-41.03V171.56h-123.12v16.15c31.62,1.35,45.08,18.16,45.08,49.11v202.51c0,24.22-15.47,42.38-42.38,42.38s-42.39-18.16-42.39-43.73V171.56h-123.12v16.15c31.62,1.35,45.08,18.16,45.08,49.11v171.56c0,47.77-29.6,71.31-65.26,71.31-37.68,0-53.82-22.87-53.82-62.57V213.94c0-28.93-14.13-42.38-44.4-42.38h-187.92c-37,0-51.8,26.24-42.38,59.2l77.78,203.51c1.22,3.2,2.17,6.52,2.63,9.91,2.42,18.07-7.15,33.49-31.07,33.49h-41.39c-94.86,0-159.45-74.68-159.45-229.42S168.86,22.2,288.69,22.2c2.23,0,1.61,.03,3.78,.08,72.11,1.73,112.84,32.15,144.5,96.8h16.15V0h-167.19C112.35,0,0,100.92,0,252.29s106.3,246.24,262.38,246.24h115.39c30.61,0,44.74-21.63,41.93-47.78-.58-5.44-1.98-10.75-3.93-15.86l-77.25-202.78c-6.73-22.87,2.69-39.69,26.91-39.69h56.73c22.87,0,30.95,13.46,30.95,32.29v185.69c0,56.51,36.33,94.19,108.32,94.19,43.03,0,73.65-15.43,90.15-41.33v35.27h439.32v-16.15c-31.62-1.35-45.08-18.16-45.08-49.11Z"/><path class="d" d="M1394.93,433.27V0h-123.12V16.15c31.62,1.35,45.08,18.16,45.08,49.11V197.29c-16.09-16.36-40.64-25.73-76.7-25.73-92.84,0-156.08,57.19-156.08,168.87s53.15,164.16,146.67,164.16c40.16,0,69.53-13.92,86.12-39.51v33.45h123.12v-16.15c-31.62-1.35-45.08-18.16-45.08-49.11Zm-143.3,47.09c-52.48,0-81.41-32.97-81.41-146.67,0-107.64,31.62-141.28,82.08-141.28,44.4,0,64.59,28.93,64.59,66.6v148.01c0,47.09-28.26,73.33-65.26,73.33Z"/></g></g><g id="b"/><g id="c"/></svg>